<svg xmlns="http://www.w3.org/2000/svg" width="600" height="800" viewBox="0 0 600 800" fill="none">
<title>Your AI’s source of truth</title>
<desc>Exports and notes enter Coleta, where context keeps its source, history and access rules. Eligible context is available to connected assistants.</desc>
<rect width="600" height="800" rx="24" fill="#f0f4eb"/>
<g font-family="Arial, sans-serif" text-anchor="middle">
<text x="300" y="62" fill="#243226" font-size="30" letter-spacing="-1">Your AI’s source of truth.</text>
<g fill="#65775c" font-size="16" letter-spacing="2"><text x="300" y="125">COLLECT</text><text x="300" y="296">CONNECT</text><text x="300" y="601">CONTINUE</text></g>
<g fill="#fffffc" stroke="#d5dfcc"><rect x="24" y="149" width="176" height="58" rx="12"/><rect x="212" y="149" width="176" height="58" rx="12"/><rect x="400" y="149" width="176" height="58" rx="12"/><rect x="24" y="624" width="176" height="58" rx="12"/><rect x="212" y="624" width="176" height="58" rx="12"/><rect x="400" y="624" width="176" height="58" rx="12"/></g>
<g fill="#34462e" font-size="19"><text x="112" y="184">Claude export</text><text x="300" y="184">ChatGPT export</text><text x="488" y="184">Your notes</text><text x="112" y="659">Claude</text><text x="300" y="659">ChatGPT</text><text x="488" y="659">Local model</text></g>
<g stroke="#8a9e7c" stroke-width="2"><path d="M300 219V266m-7-8 7 8 7-8"/><path d="M300 526V573m-7-8 7 8 7-8"/></g>
<rect x="91" y="320" width="418" height="193" rx="20" fill="#243a2c"/>
<text x="300" y="372" fill="#f6f9ef" font-size="42" font-weight="700" letter-spacing="-2">coleta</text>
<g fill="#eef4e5" font-size="20"><text x="300" y="414">Facts · Preferences · Decisions</text><text x="300" y="447">Projects · Conversations</text></g>
<text x="300" y="486" fill="#c1d2b4" font-size="17">Source + history + your rules</text>
<text x="300" y="715" fill="#65775c" font-size="18">Only eligible context travels.</text>
<g fill="#6b7c62" font-size="15"><text x="300" y="754">Illustrative flow · availability depends on</text><text x="300" y="776">the connection and your access policy</text></g>
</g></svg>
